<?xml version="1.0" encoding="UTF-8"?>
<svg version="1.1" xmlns="http://www.w3.org/2000/svg" width="648" height="291">
<path d="M0 0 C18.5625 -0.1546875 18.5625 -0.1546875 37.5 -0.3125 C41.39490234 -0.35802002 45.28980469 -0.40354004 49.30273438 -0.45043945 C54.09082031 -0.47302246 54.09082031 -0.47302246 56.33850098 -0.47721863 C57.89488896 -0.48485314 59.45124897 -0.50234847 61.00744629 -0.52787781 C76.84358174 -0.7744863 76.84358174 -0.7744863 82.66815186 3.65219116 C86.04664081 7.07116748 87.11616742 10.38711833 87.328125 15.06640625 C87.31881096 16.56530146 87.29206297 18.06416615 87.25 19.5625 C87.23356445 20.75504395 87.23356445 20.75504395 87.21679688 21.97167969 C87.11355928 27.53977718 86.74821874 33.06607766 86.23535156 38.61157227 C85.98495064 42.21667025 85.95166557 45.77726815 85.96875 49.390625 C85.97326172 50.63360352 85.97777344 51.87658203 85.98242188 53.15722656 C85.98822266 54.0953418 85.99402344 55.03345703 86 56 C86.10609085 55.46208832 86.2121817 54.92417664 86.32148743 54.3699646 C87.43072515 48.75478886 88.5520896 43.14213139 89.68041992 37.53076172 C90.09953133 35.43828045 90.51558167 33.34518357 90.9284668 31.25146484 C91.52362754 28.23627022 92.12988339 25.22348543 92.73828125 22.2109375 C92.91966141 21.27945892 93.10104156 20.34798035 93.28791809 19.38827515 C94.96788623 11.16898673 97.23208859 6.03993403 104 1 C118.01586403 -6.00793201 135.32978764 0 151 0 C151 49.17 151 98.34 151 149 C129.55 149 108.1 149 86 149 C84.45214001 147.45214001 84.79276651 146.03470872 84.75 143.875 C85.09813988 123.42178234 95.22691342 107.19028662 104.828125 89.796875 C108.13694592 83.78345263 111.33090577 77.71299682 114.5 71.625 C115.23814941 70.20840088 115.23814941 70.20840088 115.99121094 68.76318359 C118.7085865 63.53190746 121.37074186 58.27602146 124 53 C118.83569914 60.71819867 113.69128295 68.4485534 108.60546875 76.21875 C108.15978546 76.89953613 107.71410217 77.58032227 107.25491333 78.28173828 C105.43558654 81.0618221 103.61704579 83.84241627 101.80004883 86.62402344 C100.44481388 88.69811383 99.08776008 90.77100492 97.73046875 92.84375 C97.32829636 93.46052612 96.92612396 94.07730225 96.51176453 94.71276855 C94.51269291 97.76317569 92.48427152 100.79293016 90.4074707 103.79101562 C90.02379837 104.34712524 89.64012604 104.90323486 89.24482727 105.47619629 C86.97820579 108.25078703 84.42184161 109.96390453 81 111 C76.55793861 111.30529632 73.2835342 110.87971698 69.57421875 108.33740234 C60.85446684 100.41982792 57.27380057 85.22363384 53.375 74.375 C52.28258002 71.36053921 51.18540814 68.34783325 50.0859375 65.3359375 C49.82496277 64.61919861 49.56398804 63.90245972 49.29510498 63.16400146 C47.04592969 57.02919598 44.59035392 50.9995564 42 45 C43.59822889 50.73958812 45.1974045 56.47891143 46.79736328 62.21801758 C47.33862313 64.16000682 47.87964842 66.10206145 48.42041016 68.04418945 C49.20930319 70.87729974 49.99893672 73.71020202 50.7890625 76.54296875 C51.18412743 77.95956032 51.18412743 77.95956032 51.58717346 79.4047699 C52.92740347 84.19975951 54.28023486 88.99071288 55.65600586 93.77563477 C55.92428192 94.70890091 56.19255798 95.64216705 56.46896362 96.60371399 C56.9732505 98.35401352 57.47930614 100.10380495 57.98757935 101.85295105 C62.39387654 117.13439955 65.08192151 132.04169008 65 148 C64.67 148.33 64.34 148.66 64 149 C42.88 149 21.76 149 0 149 C0 99.83 0 50.66 0 0 Z " fill="#FAFAFA" transform="translate(95,29)"/>
<path d="M0 0 C49.5 0 99 0 150 0 C150 53 150 53 145 59 C138.95631835 62.02184083 132.91911169 61.9648001 126.62573242 59.88476562 C125.34556837 59.39865798 124.06810991 58.90538493 122.79296875 58.40625 C122.09585281 58.13893066 121.39873688 57.87161133 120.68049622 57.59619141 C118.45069679 56.73824345 116.22500965 55.87028736 114 55 C113.28779297 54.722771 112.57558594 54.44554199 111.84179688 54.15991211 C106.61649404 52.12473771 101.40124777 50.06455976 96.1875 48 C94.54209895 47.34987064 92.89667202 46.69980681 91.2512207 46.04980469 C82.84622408 42.72680324 74.44936405 39.38413202 66.0625 36.015625 C65.26749588 35.69654175 64.47249176 35.3774585 63.65339661 35.04870605 C59.86984293 33.52975741 56.08752962 32.00785222 52.30737305 30.48046875 C45.59926984 27.77809824 38.90205292 25.17556385 32 23 C33.25937378 23.648479 33.25937378 23.648479 34.54418945 24.31005859 C42.73505298 28.52867481 50.92222201 32.75438787 59.10595703 36.98681641 C61.45504709 38.20169115 63.8049713 39.41487844 66.15576172 40.62646484 C96.01221703 56.02443406 96.01221703 56.02443406 101 66 C101.65768879 71.29385567 101.39442733 75.74292915 98.37890625 80.33056641 C93.2124113 86.58561111 86.38551164 90.88228458 79.5 95 C77.65063547 96.125635 75.80169471 97.25196645 73.953125 98.37890625 C72.98826172 98.96430176 72.02339844 99.54969727 71.02929688 100.15283203 C65.74500976 103.37502065 60.49819376 106.65697168 55.25 109.9375 C54.26322266 110.55173828 53.27644531 111.16597656 52.25976562 111.79882812 C46.43736244 115.43337116 40.68522152 119.15427055 35 123 C35.8189978 122.58657349 35.8189978 122.58657349 36.65454102 122.16479492 C47.7771047 116.55785775 58.93437515 111.04036333 70.18481445 105.69458008 C81.70685231 100.2084853 93.16669288 94.59454438 104.63061523 88.98828125 C107.80953196 87.43384908 110.99229521 85.88769641 114.17773438 84.34667969 C117.51687809 82.73005589 120.8368118 81.07948086 124.15039062 79.41113281 C125.8344659 78.57843311 127.5187055 77.74606565 129.203125 76.9140625 C129.96792175 76.52100922 130.73271851 76.12795593 131.52069092 75.72299194 C136.59133679 73.24584005 140.34793986 72.14898382 146 73 C148.85826685 75.7143913 149.90829233 77.37147197 150.48101807 81.29670715 C150.47213562 82.54691147 150.46325317 83.79711578 150.45410156 85.08520508 C150.45468567 85.77843872 150.45526978 86.47167236 150.45587158 87.18591309 C150.45309746 89.46430536 150.42204032 91.74136918 150.390625 94.01953125 C150.38316015 95.60421535 150.37746837 97.1889087 150.37347412 98.77360535 C150.35823683 102.93474022 150.31897208 107.09531232 150.2746582 111.25622559 C150.233664 115.50602608 150.21545429 119.75591794 150.1953125 124.00585938 C150.15247541 132.33749719 150.08424787 140.66867849 150 149 C130.59008588 149.02332763 111.18017459 149.0409785 91.77024937 149.05181217 C82.75853063 149.05697542 73.74682058 149.06401866 64.73510742 149.07543945 C56.8834045 149.08538541 49.03170786 149.09185322 41.17999882 149.09408849 C37.01996548 149.09539575 32.85995015 149.09848255 28.69992256 149.10573006 C24.78891588 149.11248889 20.87793473 149.11461724 16.96692276 149.11310768 C15.52732772 149.11338407 14.08773187 149.11539001 12.64814186 149.11920547 C10.69105767 149.12414051 8.73395996 149.12239807 6.77687073 149.12025452 C5.67901528 149.12117631 4.58115984 149.1220981 3.45003605 149.12304783 C1 149 1 149 0 148 C-0.09658904 146.08905061 -0.12187192 144.17448134 -0.12025452 142.26109314 C-0.12163201 141.01702918 -0.12300951 139.77296522 -0.12442875 138.49120235 C-0.12088148 137.09431372 -0.11724358 135.6974253 -0.11352539 134.30053711 C-0.11321928 132.81859369 -0.11335216 131.33665012 -0.11389065 129.85470676 C-0.11411716 125.87262069 -0.10830557 121.89056443 -0.10128021 117.90848541 C-0.09560108 114.1769857 -0.09531796 110.44549337 -0.09460449 106.71398926 C-0.08934932 95.78848886 -0.07538828 84.86299406 -0.0625 73.9375 C-0.041875 49.538125 -0.02125 25.13875 0 0 Z " fill="#F9F9F9" transform="translate(404,29)"/>
<path d="M0 0 C1.31760818 -0.00043808 2.63521637 -0.00087616 3.99275208 -0.00132751 C7.5936454 -0.00218611 11.1942372 0.01541737 14.79506063 0.03639436 C18.56266839 0.05518394 22.33028353 0.05691339 26.09793091 0.06047058 C33.22703177 0.06978437 40.35599415 0.09438905 47.48503411 0.12451905 C55.60349982 0.15808387 63.72197225 0.17455429 71.8404901 0.18960536 C88.5358309 0.22093926 105.23103252 0.2736867 121.92626953 0.34057617 C122.03528458 3.17496754 122.11404857 6.0050782 122.17626953 8.84057617 C122.20978516 9.63206055 122.24330078 10.42354492 122.27783203 11.23901367 C122.38897353 18.01864486 120.61672802 23.07999671 116.28564453 28.32885742 C108.24832549 34.94208838 101.21410884 35.98479737 90.92626953 35.34057617 C84.87754675 34.59936128 78.89587178 33.40869683 72.91064453 32.27807617 C71.20160719 31.9632639 69.49239554 31.64939661 67.78302002 31.33642578 C63.32290916 30.51723643 58.86525542 29.68538127 54.40802002 28.85070801 C49.84392508 27.99840098 45.27758332 27.158312 40.71142578 26.31713867 C31.78082186 24.67011719 22.85277021 23.00968287 13.92626953 21.34057617 C21.1732087 23.88337932 28.52511172 25.89817825 35.95155334 27.83846664 C38.13359627 28.40860944 40.31463797 28.98245418 42.4954834 29.55715942 C47.13822091 30.77990797 51.78218833 31.99794279 56.42626953 33.21557617 C61.79001507 34.62233614 67.15321141 36.03114682 72.51542664 37.4437294 C74.63088289 38.00010775 76.74710534 38.55349252 78.86340332 39.10665894 C85.9808436 40.97450977 93.07419664 42.9177113 100.14306641 44.9621582 C100.85146919 45.16401167 101.55987198 45.36586514 102.28974152 45.57383537 C111.13232503 48.16419476 116.13525839 51.50073976 120.92626953 59.34057617 C121.92900918 62.34879511 122.07022364 64.40906261 122.10327148 67.55541992 C122.12252434 69.15353516 122.12252434 69.15353516 122.14216614 70.78393555 C122.14955307 71.93700195 122.15694 73.09006836 122.16455078 74.27807617 C122.17262253 75.46852539 122.18069427 76.65897461 122.18901062 77.88549805 C122.20285445 80.41071109 122.21357526 82.93594288 122.22143555 85.46118164 C122.23857773 89.29765117 122.28245475 93.1332431 122.32666016 96.96948242 C122.33679352 99.42650735 122.3453076 101.8835396 122.35205078 104.34057617 C122.36955887 105.47744873 122.38706696 106.61432129 122.40510559 107.78564453 C122.37469357 119.12299487 119.29139424 128.56274957 111.48876953 136.96557617 C110.64314453 137.74932617 109.79751953 138.53307617 108.92626953 139.34057617 C108.22501953 140.00057617 107.52376953 140.66057617 106.80126953 141.34057617 C100.01570781 146.06096693 92.36944774 149.46387073 84.048172 149.46755981 C83.06807663 149.47037964 82.08798126 149.47319946 81.07818604 149.47610474 C80.00945251 149.47408051 78.94071899 149.47205627 77.83959961 149.4699707 C76.70920761 149.47172302 75.57881561 149.47347534 74.41416931 149.47528076 C70.67469756 149.47968525 66.93527302 149.47676678 63.19580078 149.47338867 C60.60316458 149.47406197 58.01052844 149.47503222 55.41789246 149.47628784 C49.98488709 149.47776279 44.55189954 149.47571132 39.11889648 149.47094727 C32.83064971 149.46549708 26.54243531 149.46727414 20.25418931 149.47277367 C14.20895679 149.47784964 8.16374018 149.47732393 2.11850548 149.47439194 C-0.4568412 149.47372261 -3.03218869 149.4745513 -5.60753441 149.47687149 C-9.19679366 149.47939596 -12.78598963 149.47556072 -16.37524414 149.4699707 C-17.45005035 149.47199493 -18.52485657 149.47401917 -19.63223267 149.47610474 C-20.60386856 149.47328491 -21.57550446 149.47046509 -22.57658386 149.46755981 C-23.42589068 149.46718279 -24.27519751 149.46680576 -25.1502409 149.46641731 C-27.07373047 149.34057617 -27.07373047 149.34057617 -28.07373047 148.34057617 C-28.16651377 146.95897503 -28.1912009 145.5726958 -28.18725586 144.18798828 C-28.18714256 142.86673195 -28.18714256 142.86673195 -28.18702698 141.51878357 C-28.18186569 140.56149857 -28.17670441 139.60421356 -28.17138672 138.61791992 C-28.16997177 137.64270889 -28.16855682 136.66749786 -28.167099 135.66273499 C-28.1614818 132.53448474 -28.1489264 129.40630494 -28.13623047 126.27807617 C-28.13121768 124.16284283 -28.12665439 122.04760837 -28.12255859 119.93237305 C-28.11150678 114.73508321 -28.09475193 109.53783472 -28.07373047 104.34057617 C-5.9128876 98.34648253 16.31727926 92.65020171 38.57849121 87.04187012 C45.35161076 85.33530097 52.12408693 83.6261875 58.89614296 81.91540337 C61.23748265 81.32440341 63.57919302 80.73489006 65.92094421 80.14552307 C67.33964409 79.7875004 68.75833076 79.42942539 70.17700195 79.07128906 C71.41222092 78.76010635 72.64743988 78.44892365 73.92008972 78.12831116 C75.9407329 77.59882476 77.94459871 77.00113311 79.92626953 76.34057617 C70.76479081 77.40732945 61.64694012 78.66026138 52.53173828 80.06713867 C50.48293515 80.37980248 48.43410662 80.6922999 46.38525391 81.00463867 C43.25183533 81.48267991 40.11931026 81.96470011 36.98852539 82.4597168 C-2.44026968 88.67277656 -2.44026968 88.67277656 -16.11279297 80.05541992 C-21.79335546 75.71643708 -25.31684369 70.13191438 -26.71606445 63.12304688 C-27.94395406 53.87286167 -28.37880802 44.81040006 -28.32373047 35.46557617 C-28.33088504 34.11661419 -28.33869627 32.76765553 -28.34716797 31.41870117 C-28.31034461 12.82290749 -28.31034461 12.82290749 -22.82373047 6.96557617 C-22.26169922 6.3390918 -21.69966797 5.71260742 -21.12060547 5.06713867 C-14.55421046 -0.4716907 -8.21190328 -0.07138438 0 0 Z " fill="#FAFAFA" transform="translate(278.07373046875,28.659423828125)"/>
<path d="M0 0 C2.97 0 5.94 0 9 0 C8.01 4.62 7.02 9.24 6 14 C10.62 14 15.24 14 20 14 C20.309375 11.875625 20.61875 9.75125 20.9375 7.5625 C21.875 1.125 21.875 1.125 23 0 C25.67058851 -0.14115161 28.32432238 -0.04247107 31 0 C30.3105043 7.47349939 28.95100009 14.71545333 27.4375 22.0625 C27.08655273 23.79016602 27.08655273 23.79016602 26.72851562 25.55273438 C26.15586745 28.36922846 25.57961941 31.18493382 25 34 C25.39268066 33.32533691 25.78536133 32.65067383 26.18994141 31.95556641 C28.00094638 28.84498043 29.81296744 25.73498747 31.625 22.625 C32.24246094 21.56410156 32.85992187 20.50320312 33.49609375 19.41015625 C34.7304789 17.2922112 35.97558343 15.1804765 37.23144531 13.07519531 C39.0227094 10.04916667 39.0227094 10.04916667 40.44824219 6.97949219 C41.79085 4.30089039 42.90510749 2.14542849 45 0 C48.47910224 -0.82380849 51.49944541 -0.62262829 55 0 C55.65362754 3.91540608 56.2964178 7.83252191 56.9375 11.75 C57.21110352 13.38775391 57.21110352 13.38775391 57.49023438 15.05859375 C58.67838028 22.36029043 59.50010562 29.61925562 60 37 C57.03 37 54.06 37 51 37 C50.505 33.04 50.505 33.04 50 29 C47.91666909 28.97892584 45.83276942 29.00974262 43.75 29.0625 C42.00976562 29.07990234 42.00976562 29.07990234 40.234375 29.09765625 C35.98337872 29.87517617 35.98337872 29.87517617 33 37 C27.06 37 21.12 37 15 37 C16.875 25.5 16.875 25.5 18 21 C13.38 21 8.76 21 4 21 C3.87625 22.340625 3.7525 23.68125 3.625 25.0625 C3.16879285 29.24109306 2.27625681 33.00106201 1 37 C-1.64 37 -4.28 37 -7 37 C-6.31137469 28.9892828 -4.66689417 21.28196777 -2.9375 13.4375 C-2.652578 12.12964802 -2.36806969 10.82170585 -2.08398438 9.51367188 C-1.39337262 6.3415399 -0.69861189 3.1703779 0 0 Z M47 10 C45.99466333 11.62170379 44.99588093 13.24747237 44 14.875 C43.443125 15.77992188 42.88625 16.68484375 42.3125 17.6171875 C40.83917671 19.83857467 40.83917671 19.83857467 41 22 C43.64 22 46.28 22 49 22 C49.04125 20.7625 49.0825 19.525 49.125 18.25 C49.14820313 17.55390625 49.17140625 16.8578125 49.1953125 16.140625 C48.97248542 13.69844025 48.20915 12.11363229 47 10 Z " fill="#ECECEC" transform="translate(461,189)"/>
<path d="M0 0 C2.64 0 5.28 0 8 0 C7.37879271 6.42561293 6.36523054 12.63072849 5 18.9375 C4.82210938 19.78634766 4.64421875 20.63519531 4.4609375 21.50976562 C3.13455704 27.73088592 3.13455704 27.73088592 2 30 C8.47246584 31.1661479 14.94010791 32.04759622 21 29 C26.78297777 22.66892078 30.24554176 14.51078005 33.67578125 6.7331543 C35.94528042 2.04896491 35.94528042 2.04896491 38 0 C40.48046875 -0.390625 40.48046875 -0.390625 43.1875 -0.25 C44.08855469 -0.21390625 44.98960937 -0.1778125 45.91796875 -0.140625 C46.94857422 -0.07101563 46.94857422 -0.07101563 48 0 C48.71589268 4.62588527 49.42786202 9.25235108 50.13623047 13.87939453 C50.3776699 15.45280184 50.62017345 17.02604624 50.86376953 18.59912109 C51.21407659 20.86253363 51.56053056 23.12650778 51.90625 25.390625 C52.0156189 26.09181458 52.12498779 26.79300415 52.2376709 27.51544189 C52.72645454 30.73993874 53 33.72609245 53 37 C50.03 37 47.06 37 44 37 C43.505 33.04 43.505 33.04 43 29 C40.91666909 28.97892584 38.83276942 29.00974262 36.75 29.0625 C35.00976562 29.07990234 35.00976562 29.07990234 33.234375 29.09765625 C28.98337872 29.87517617 28.98337872 29.87517617 26 37 C14.78 37 3.56 37 -8 37 C-7.236875 32.936875 -6.47375 28.87375 -5.6875 24.6875 C-5.45377686 23.43026123 -5.22005371 22.17302246 -4.97924805 20.87768555 C-3.63600532 13.81390023 -2.01438098 6.90282227 0 0 Z M40 10 C38.99466333 11.62170379 37.99588093 13.24747237 37 14.875 C36.443125 15.77992188 35.88625 16.68484375 35.3125 17.6171875 C33.83917671 19.83857467 33.83917671 19.83857467 34 22 C36.64 22 39.28 22 42 22 C42.05422947 20.5629191 42.09289723 19.12524538 42.125 17.6875 C42.14820313 16.88699219 42.17140625 16.08648437 42.1953125 15.26171875 C42.15817322 12.71611424 42.15817322 12.71611424 40 10 Z " fill="#EEEEED" transform="translate(307,233)"/>
<path d="M0 0 C3.96 0 7.92 0 12 0 C12.66 7.92 13.32 15.84 14 24 C14.71027344 22.35128906 15.42054688 20.70257813 16.15234375 19.00390625 C17.08060461 16.85671698 18.0089968 14.70958448 18.9375 12.5625 C19.40607422 11.47388672 19.87464844 10.38527344 20.35742188 9.26367188 C21.0293457 7.71196289 21.0293457 7.71196289 21.71484375 6.12890625 C22.33540649 4.69140015 22.33540649 4.69140015 22.96850586 3.22485352 C24 1 24 1 25 0 C27.01964199 -0.07244053 29.04167124 -0.08377188 31.0625 -0.0625 C32.71958984 -0.04896484 32.71958984 -0.04896484 34.41015625 -0.03515625 C35.26480469 -0.02355469 36.11945313 -0.01195312 37 0 C36.2365209 4.10556923 35.46284743 8.20915699 34.6875 12.3125 C34.47416016 13.46041016 34.26082031 14.60832031 34.04101562 15.79101562 C32.67901214 22.96694442 31.04628153 29.98786186 29 37 C26.36 37 23.72 37 21 37 C22.32 29.74 23.64 22.48 25 15 C21.7 22.26 18.4 29.52 15 37 C12.03 37 9.06 37 6 37 C5.67 30.4 5.34 23.8 5 17 C3.72449629 23.20703984 3.72449629 23.20703984 2.45727539 29.41577148 C2.29735107 30.18477783 2.13742676 30.95378418 1.97265625 31.74609375 C1.81031494 32.53685303 1.64797363 33.3276123 1.48071289 34.14233398 C1 36 1 36 0 37 C-2.67058851 37.14115161 -5.32432238 37.04247107 -8 37 C-7.23419174 33.082334 -6.46140149 29.1660746 -5.6875 25.25 C-5.47416016 24.15816406 -5.26082031 23.06632812 -5.04101562 21.94140625 C-3.57838559 14.5627652 -1.87619614 7.28470291 0 0 Z " fill="#E6E6E6" transform="translate(231,189)"/>
<path d="M0 0 C3.96 0 7.92 0 12 0 C12.66 7.92 13.32 15.84 14 24 C14.71027344 22.35128906 15.42054687 20.70257813 16.15234375 19.00390625 C17.08060461 16.85671698 18.0089968 14.70958448 18.9375 12.5625 C19.40607422 11.47388672 19.87464844 10.38527344 20.35742188 9.26367188 C21.0293457 7.71196289 21.0293457 7.71196289 21.71484375 6.12890625 C22.33540649 4.69140015 22.33540649 4.69140015 22.96850586 3.22485352 C24 1 24 1 25 0 C27.01964199 -0.07244053 29.04167124 -0.08377188 31.0625 -0.0625 C32.71958984 -0.04896484 32.71958984 -0.04896484 34.41015625 -0.03515625 C35.26480469 -0.02355469 36.11945313 -0.01195312 37 0 C36.2365209 4.10556923 35.46284743 8.20915699 34.6875 12.3125 C34.47416016 13.46041016 34.26082031 14.60832031 34.04101562 15.79101562 C32.67901214 22.96694442 31.04628153 29.98786186 29 37 C26.36 37 23.72 37 21 37 C22.32 29.74 23.64 22.48 25 15 C21.7 22.26 18.4 29.52 15 37 C12.03 37 9.06 37 6 37 C5.67 30.4 5.34 23.8 5 17 C3.72449629 23.20703984 3.72449629 23.20703984 2.45727539 29.41577148 C2.29735107 30.18477783 2.13742676 30.95378418 1.97265625 31.74609375 C1.81031494 32.53685303 1.64797363 33.3276123 1.48071289 34.14233398 C1 36 1 36 0 37 C-2.67058851 37.14115161 -5.32432238 37.04247107 -8 37 C-7.23419174 33.082334 -6.46140149 29.1660746 -5.6875 25.25 C-5.47416016 24.15816406 -5.26082031 23.06632812 -5.04101562 21.94140625 C-3.57838559 14.5627652 -1.87619614 7.28470291 0 0 Z " fill="#E6E6E6" transform="translate(87,189)"/>
<path d="M0 0 C3.96 0 7.92 0 12 0 C12.33 8.25 12.66 16.5 13 25 C14.17369141 22.41865234 14.17369141 22.41865234 15.37109375 19.78515625 C16.39311191 17.54421735 17.4152537 15.30333483 18.4375 13.0625 C18.95376953 11.92619141 19.47003906 10.78988281 20.00195312 9.61914062 C20.49501953 8.53955078 20.98808594 7.45996094 21.49609375 6.34765625 C21.95169678 5.34742432 22.4072998 4.34719238 22.87670898 3.31665039 C24 1 24 1 25 0 C27.01964199 -0.07244053 29.04167124 -0.08377188 31.0625 -0.0625 C32.71958984 -0.04896484 32.71958984 -0.04896484 34.41015625 -0.03515625 C35.26480469 -0.02355469 36.11945313 -0.01195312 37 0 C36.23419174 3.917666 35.46140149 7.8339254 34.6875 11.75 C34.47416016 12.84183594 34.26082031 13.93367187 34.04101562 15.05859375 C32.57901328 22.43406828 30.89321185 29.72335264 29 37 C26.36 37 23.72 37 21 37 C21.29053375 35.22898044 21.5825087 33.45819731 21.875 31.6875 C22.03742188 30.70136719 22.19984375 29.71523437 22.3671875 28.69921875 C23.20651536 23.79277749 24.10955944 18.89742306 25 14 C21.7 21.59 18.4 29.18 15 37 C12.03 37 9.06 37 6 37 C5.67 30.07 5.34 23.14 5 16 C3.72557628 22.16221148 3.72557628 22.16221148 2.45727539 28.32568359 C2.29735107 29.09219238 2.13742676 29.85870117 1.97265625 30.6484375 C1.81031494 31.43395996 1.64797363 32.21948242 1.48071289 33.02880859 C1 35 1 35 0 37 C-2.64 37 -5.28 37 -8 37 C-7.2365209 32.89443077 -6.46284743 28.79084301 -5.6875 24.6875 C-5.47416016 23.53958984 -5.26082031 22.39167969 -5.04101562 21.20898438 C-3.67745028 14.02482666 -2.01604986 7.02956974 0 0 Z " fill="#E5E4E4" transform="translate(272,189)"/>
<path d="M0 0 C3.72901814 -0.08736736 7.45777165 -0.14051482 11.1875 -0.1875 C12.24259766 -0.21263672 13.29769531 -0.23777344 14.38476562 -0.26367188 C15.91713867 -0.27817383 15.91713867 -0.27817383 17.48046875 -0.29296875 C18.41785889 -0.3086792 19.35524902 -0.32438965 20.32104492 -0.34057617 C23.55358304 0.07037714 25.40348961 1.05468973 28 3 C29.24524356 6.58007524 29.35616341 8.23424866 27.75 11.6875 C26.26878289 13.64482261 24.81687106 15.35616428 23 17 C23.495 17.33 23.99 17.66 24.5 18 C26.43959714 20.58612953 26.4819812 22.76042286 26.34765625 25.9375 C25.76485234 29.3950333 24.29405737 31.40409298 22 34 C16.2765794 37.99133279 10.31003705 37.34104325 3.625 37.1875 C1.94857422 37.16719727 1.94857422 37.16719727 0.23828125 37.14648438 C-2.50831211 37.11127164 -5.25390289 37.06202096 -8 37 C-7.23419174 33.082334 -6.46140149 29.1660746 -5.6875 25.25 C-5.47416016 24.15816406 -5.26082031 23.06632812 -5.04101562 21.94140625 C-3.57901328 14.56593172 -1.89321185 7.27664736 0 0 Z M7 7 C6.34 9.31 5.68 11.62 5 14 C6.93681161 14.08107583 8.8745934 14.13922475 10.8125 14.1875 C11.89144531 14.22230469 12.97039063 14.25710937 14.08203125 14.29296875 C16.97473822 14.22693486 16.97473822 14.22693486 18.94921875 12.73828125 C19.46935547 11.87783203 19.46935547 11.87783203 20 11 C19.67 9.68 19.34 8.36 19 7 C15.04 7 11.08 7 7 7 Z M4 20 C3.34 23.3 2.68 26.6 2 30 C4.10304477 30.1080023 6.20766909 30.18558987 8.3125 30.25 C9.48425781 30.29640625 10.65601563 30.3428125 11.86328125 30.390625 C15.0607046 30.30808711 15.0607046 30.30808711 16.9375 28.15625 C18.30632414 25.3783422 17.88764012 23.90500403 17 21 C14.00519083 20.1276588 11.36424089 19.89170234 8.25 19.9375 C6.8475 19.958125 5.445 19.97875 4 20 Z " fill="#EFEEEE" transform="translate(542,189)"/>
<path d="M0 0 C4.38356728 3.94521055 6.2879495 6.83262433 6.8125 12.8125 C6.71735355 19.2705653 4.08724995 25.47397972 0.25 30.625 C-4.72339553 35.37233209 -9.1382159 37.46505004 -16.0625 37.75 C-21.33355381 37.53798813 -24.32458308 36.46855054 -28.5 33.25 C-32.43868546 27.80643943 -32.34975036 22.74856701 -31.5 16.25 C-29.34996692 9.41767265 -25.59920608 4.07492584 -19.5 0.25 C-13.16223137 -2.76798506 -6.31252228 -3.15626114 0 0 Z M-18.5 8.25 C-22.44564596 13.23397385 -23.21131601 17.44752445 -22.94140625 23.77734375 C-22.64662803 26.46935144 -22.64662803 26.46935144 -20.5 29 C-16.50264434 30.66556486 -13.56422461 30.82139049 -9.5 29.25 C-5.79415503 26.20524798 -2.84798738 21.81697184 -2.19921875 17.03125 C-2.18162231 13.60580871 -2.21106678 10.92984288 -3.5625 7.75 C-8.52061722 3.91145763 -13.66158324 4.80934808 -18.5 8.25 Z " fill="#ECECEC" transform="translate(449.5,189.75)"/>
<path d="M0 0 C3.54138618 -0.11681812 7.0822724 -0.187455 10.625 -0.25 C11.62402344 -0.28351563 12.62304688 -0.31703125 13.65234375 -0.3515625 C19.77682138 -0.43268141 23.36678335 -0.14550963 28 4 C30.46505406 8.03372483 30.62995884 12.39585636 30 17 C27.96669436 24.73755228 25.359273 31.07762113 18.546875 35.64453125 C13.53199185 37.56101193 8.94038489 37.32124194 3.625 37.1875 C2.09166016 37.16719727 2.09166016 37.16719727 0.52734375 37.14648438 C-1.98232049 37.11130217 -4.4908809 37.06207539 -7 37 C-6.31137469 28.9892828 -4.66689417 21.28196777 -2.9375 13.4375 C-2.652578 12.12964802 -2.36806969 10.82170585 -2.08398438 9.51367188 C-1.39337262 6.3415399 -0.69861189 3.1703779 0 0 Z M7 7 C6.3267344 9.89444095 5.66119596 12.79030013 5 15.6875 C4.71382813 16.91243164 4.71382813 16.91243164 4.421875 18.16210938 C3.51266084 22.17239326 2.72999902 25.85717252 3 30 C10.53396023 30.50524829 10.53396023 30.50524829 17 27 C20.95010767 21.49806432 21.52614105 16.62937727 21 10 C18.83012731 7.77500352 17.52204306 7.05932307 14.421875 6.70703125 C13.09929687 6.75923828 13.09929687 6.75923828 11.75 6.8125 C10.41195313 6.85310547 10.41195313 6.85310547 9.046875 6.89453125 C8.03367187 6.94673828 8.03367187 6.94673828 7 7 Z " fill="#EFEEEE" transform="translate(346,189)"/>
<path d="M0 0 C2.97 0 5.94 0 9 0 C8.69147815 1.958964 8.3780582 3.91715713 8.0625 5.875 C7.88847656 6.96554688 7.71445312 8.05609375 7.53515625 9.1796875 C7 12 7 12 6 14 C10.62 14 15.24 14 20 14 C20.309375 12.06125 20.61875 10.1225 20.9375 8.125 C21.875 2.25 21.875 2.25 23 0 C25.64 0 28.28 0 31 0 C30.31137469 8.0107172 28.66689417 15.71803223 26.9375 23.5625 C26.652578 24.87035198 26.36806969 26.17829415 26.08398438 27.48632812 C25.39337262 30.6584601 24.69861189 33.8296221 24 37 C21.03 37 18.06 37 15 37 C15.99 31.72 16.98 26.44 18 21 C11.565 21.495 11.565 21.495 5 22 C4.79503906 22.99902344 4.59007812 23.99804688 4.37890625 25.02734375 C4.10949219 26.31769531 3.84007812 27.60804688 3.5625 28.9375 C3.29566406 30.22527344 3.02882813 31.51304687 2.75390625 32.83984375 C2 36 2 36 1 37 C-1.67058851 37.14115161 -4.32432238 37.04247107 -7 37 C-6.31137469 28.9892828 -4.66689417 21.28196777 -2.9375 13.4375 C-2.652578 12.12964802 -2.36806969 10.82170585 -2.08398438 9.51367188 C-1.39337262 6.3415399 -0.69861189 3.1703779 0 0 Z " fill="#EDECEC" transform="translate(368,233)"/>
<path d="M0 0 C2.97 0 5.94 0 9 0 C8.69147815 1.958964 8.3780582 3.91715713 8.0625 5.875 C7.88847656 6.96554688 7.71445313 8.05609375 7.53515625 9.1796875 C7 12 7 12 6 14 C10.62 14 15.24 14 20 14 C20.309375 12.06125 20.61875 10.1225 20.9375 8.125 C21.875 2.25 21.875 2.25 23 0 C25.64 0 28.28 0 31 0 C30.31137469 8.0107172 28.66689417 15.71803223 26.9375 23.5625 C26.652578 24.87035198 26.36806969 26.17829415 26.08398438 27.48632812 C25.39337262 30.6584601 24.69861189 33.8296221 24 37 C21.03 37 18.06 37 15 37 C15.99 31.72 16.98 26.44 18 21 C11.565 21.495 11.565 21.495 5 22 C4.79503906 22.99902344 4.59007812 23.99804688 4.37890625 25.02734375 C4.10949219 26.31769531 3.84007812 27.60804688 3.5625 28.9375 C3.29566406 30.22527344 3.02882812 31.51304687 2.75390625 32.83984375 C2 36 2 36 1 37 C-1.67058851 37.14115161 -4.32432238 37.04247107 -7 37 C-6.31137469 28.9892828 -4.66689417 21.28196777 -2.9375 13.4375 C-2.652578 12.12964802 -2.36806969 10.82170585 -2.08398438 9.51367188 C-1.39337262 6.3415399 -0.69861189 3.1703779 0 0 Z " fill="#EDECEC" transform="translate(162,189)"/>
<path d="M0 0 C2.77997535 2.70869393 3.69617196 4.58599004 4.4375 8.375 C4.1075 9.035 3.7775 9.695 3.4375 10.375 C0.7975 10.375 -1.8425 10.375 -4.5625 10.375 C-4.8925 9.385 -5.2225 8.395 -5.5625 7.375 C-10.26642312 6.41559813 -10.26642312 6.41559813 -14.9375 7.0625 C-16.96907961 8.70339122 -17.04382246 9.87822869 -17.5625 12.375 C-16.69367188 12.54515625 -15.82484375 12.7153125 -14.9296875 12.890625 C-2.41519122 15.52230878 -2.41519122 15.52230878 1.4375 19.375 C2.70006479 23.38549992 2.70342291 25.57723127 1.375 29.5625 C-1.48764255 33.71794887 -4.81404033 35.79218011 -9.5625 37.375 C-16.04695049 37.86156771 -22.05347885 38.2893045 -27.5625 34.375 C-29.9919516 30.7308226 -29.72429575 28.66258728 -29.5625 24.375 C-26.9225 24.375 -24.2825 24.375 -21.5625 24.375 C-21.2325 25.695 -20.9025 27.015 -20.5625 28.375 C-19.14816794 28.5986337 -17.73082382 28.80326476 -16.3125 29 C-15.52359375 29.11601562 -14.7346875 29.23203125 -13.921875 29.3515625 C-11.24097541 29.37819395 -9.83555911 28.74092084 -7.5625 27.375 C-7.5625 26.055 -7.5625 24.735 -7.5625 23.375 C-9.00882812 22.99408203 -9.00882812 22.99408203 -10.484375 22.60546875 C-11.74765625 22.26128906 -13.0109375 21.91710937 -14.3125 21.5625 C-15.56546875 21.22605469 -16.8184375 20.88960937 -18.109375 20.54296875 C-21.24391357 19.48275718 -23.19353012 18.64021938 -25.5625 16.375 C-26.85447837 12.58519677 -26.63105816 10.6089043 -25.5 6.75 C-20.32737286 -2.26038276 -9.05125466 -4.12864248 0 0 Z " fill="#EBEBEB" transform="translate(414.5625,189.625)"/>
<path d="M0 0 C9.57 0 19.14 0 29 0 C28.34 2.31 27.68 4.62 27 7 C20.4 7 13.8 7 7 7 C6.67 9.31 6.34 11.62 6 14 C11.94 14 17.88 14 24 14 C23.67 16.31 23.34 18.62 23 21 C16.73 21 10.46 21 4 21 C3.67 23.64 3.34 26.28 3 29 C9.6 29.33 16.2 29.66 23 30 C22.67 32.31 22.34 34.62 22 37 C12.43 37 2.86 37 -7 37 C-6.38084192 31.42757731 -5.77021812 26.39567862 -4.58984375 20.99609375 C-4.3487085 19.88161865 -4.10757324 18.76714355 -3.85913086 17.61889648 C-3.55499268 16.23903564 -3.25085449 14.8591748 -2.9375 13.4375 C-1.968125 9.003125 -0.99875 4.56875 0 0 Z " fill="#F4F4F4" transform="translate(247,233)"/>
<path d="M0 0 C2.97 0 5.94 0 9 0 C8.77280273 1.04341553 8.77280273 1.04341553 8.54101562 2.10791016 C7.85430427 5.27893188 7.17707291 8.45190694 6.5 11.625 C6.26152344 12.71941406 6.02304688 13.81382812 5.77734375 14.94140625 C5.55175781 16.00488281 5.32617188 17.06835938 5.09375 18.1640625 C4.77954102 19.62513428 4.77954102 19.62513428 4.45898438 21.11572266 C3.98023811 24.12418453 3.92111229 26.95887878 4 30 C9.88569667 30.38565446 9.88569667 30.38565446 15 28 C15.89225414 25.48246138 16.52309414 23.21797539 17.0625 20.625 C17.39176226 19.17964994 17.72119113 17.73433783 18.05078125 16.2890625 C18.20885254 15.56879883 18.36692383 14.84853516 18.52978516 14.10644531 C19.21075421 11.05587369 19.98005903 8.02915743 20.75 5 C20.99234375 4.030625 21.2346875 3.06125 21.484375 2.0625 C21.65453125 1.381875 21.8246875 0.70125 22 0 C24.97 0 27.94 0 31 0 C30.26957204 4.00382736 29.51214176 8.00209849 28.75 12 C28.54503906 13.12535156 28.34007812 14.25070313 28.12890625 15.41015625 C26.74270873 22.59317975 25.37299386 29.32037033 20.28125 34.875 C14.38949527 38.59610825 8.84059859 38.88389757 2 38 C-3.26102635 36.18585298 -3.26102635 36.18585298 -5.15625 33.14453125 C-8.46418552 24.73686182 -3.18435259 10.51713953 -1 2 C-0.67 1.34 -0.34 0.68 0 0 Z " fill="#EAEAE9" transform="translate(128,189)"/>
<path d="M0 0 C1.37478516 0.01740234 1.37478516 0.01740234 2.77734375 0.03515625 C3.69644531 0.04417969 4.61554688 0.05320313 5.5625 0.0625 C6.27277344 0.07410156 6.98304688 0.08570313 7.71484375 0.09765625 C8.43073643 4.72354152 9.14270577 9.35000733 9.85107422 13.97705078 C10.09251365 15.55045809 10.3350172 17.12370249 10.57861328 18.69677734 C10.92892034 20.96018988 11.27537431 23.22416403 11.62109375 25.48828125 C11.73046265 26.18947083 11.83983154 26.8906604 11.95251465 27.61309814 C12.44129829 30.83759499 12.71484375 33.8237487 12.71484375 37.09765625 C9.74484375 37.09765625 6.77484375 37.09765625 3.71484375 37.09765625 C3.38484375 34.45765625 3.05484375 31.81765625 2.71484375 29.09765625 C-5.2178693 28.63062759 -5.2178693 28.63062759 -12.0390625 31.72265625 C-13.26813246 33.84427426 -13.26813246 33.84427426 -14.28515625 37.09765625 C-17.25515625 37.09765625 -20.22515625 37.09765625 -23.28515625 37.09765625 C-19.19342348 28.65011635 -14.73893848 20.49429214 -9.97265625 12.41015625 C-9.34037109 11.32798828 -8.70808594 10.24582031 -8.05664062 9.13085938 C-2.77154617 0.11844214 -2.77154617 0.11844214 0 0 Z M-0.28515625 10.09765625 C-1.34896959 11.69484969 -2.3613457 13.32647364 -3.34765625 14.97265625 C-3.89550781 15.87757813 -4.44335938 16.7825 -5.0078125 17.71484375 C-6.44264357 19.94084149 -6.44264357 19.94084149 -6.28515625 22.09765625 C-3.64515625 22.09765625 -1.00515625 22.09765625 1.71484375 22.09765625 C1.38484375 18.13765625 1.05484375 14.17765625 0.71484375 10.09765625 C0.38484375 10.09765625 0.05484375 10.09765625 -0.28515625 10.09765625 Z " fill="#EDEDEC" transform="translate(325.28515625,188.90234375)"/>
<path d="M0 0 C1.64574566 -0.02688151 3.29161413 -0.04634123 4.9375 -0.0625 C5.85402344 -0.07410156 6.77054688 -0.08570313 7.71484375 -0.09765625 C10 0 10 0 11 1 C11.72300177 5.00753747 12.23750524 9.04601089 12.78442383 13.08105469 C13.05864755 15.09668328 13.34228739 17.11082302 13.62695312 19.125 C13.80291016 20.40632813 13.97886719 21.68765625 14.16015625 23.0078125 C14.32136963 24.17973145 14.48258301 25.35165039 14.64868164 26.55908203 C15.006577 30.06441708 15.06033868 33.47902762 15 37 C12.03 37 9.06 37 6 37 C6 34.36 6 31.72 6 29 C1.38 29 -3.24 29 -8 29 C-8.66 30.98 -9.32 32.96 -10 35 C-10.33 35.66 -10.66 36.32 -11 37 C-13.97 37 -16.94 37 -20 37 C-18.71992321 32.7859934 -17.12544885 29.19612282 -14.8828125 25.41015625 C-13.97208984 23.86231445 -13.97208984 23.86231445 -13.04296875 22.28320312 C-12.41003906 21.22037109 -11.77710938 20.15753906 -11.125 19.0625 C-9.87741846 16.94932838 -8.63001796 14.83604986 -7.3828125 12.72265625 C-6.79790039 11.73539551 -6.21298828 10.74813477 -5.61035156 9.73095703 C-3.70804217 6.50487565 -1.84510303 3.25906389 0 0 Z M2 10 C0.02 13.96 -1.96 17.92 -4 22 C-1.03 22 1.94 22 5 22 C4.88648483 20.18674449 4.75887039 18.37436643 4.625 16.5625 C4.55539063 15.55316406 4.48578125 14.54382813 4.4140625 13.50390625 C4.27742188 12.67761719 4.14078125 11.85132813 4 11 C3.34 10.67 2.68 10.34 2 10 Z " fill="#EDEDEC" transform="translate(207,189)"/>
<path d="M0 0 C2.97 0 5.94 0 9 0 C7.49144555 10.12319431 5.26722437 20.02421279 3 30 C8.94 30 14.88 30 21 30 C20.67 32.31 20.34 34.62 20 37 C11.09 37 2.18 37 -7 37 C-6.38084192 31.42757731 -5.77021812 26.39567862 -4.58984375 20.99609375 C-4.32236328 19.76181641 -4.05488281 18.52753906 -3.77929688 17.25585938 C-3.50150391 15.99580078 -3.22371094 14.73574219 -2.9375 13.4375 C-2.652578 12.12964802 -2.36806969 10.82170585 -2.08398438 9.51367188 C-1.39337262 6.3415399 -0.69861189 3.1703779 0 0 Z " fill="#EEEEEE" transform="translate(278,233)"/>
<path d="M0 0 C2.97 0 5.94 0 9 0 C8.23419174 3.917666 7.46140149 7.8339254 6.6875 11.75 C6.47416016 12.84183594 6.26082031 13.93367187 6.04101562 15.05859375 C4.57901328 22.43406828 2.89321185 29.72335264 1 37 C-1.64 37 -4.28 37 -7 37 C-6.31137469 28.9892828 -4.66689417 21.28196777 -2.9375 13.4375 C-2.652578 12.12964802 -2.36806969 10.82170585 -2.08398438 9.51367188 C-1.39337262 6.3415399 -0.69861189 3.1703779 0 0 Z " fill="#E7E7E7" transform="translate(403,233)"/>
<path d="M0 0 C2.64 0 5.28 0 8 0 C7.31137469 8.0107172 5.66689417 15.71803223 3.9375 23.5625 C3.652578 24.87035198 3.36806969 26.17829415 3.08398438 27.48632812 C2.39337262 30.6584601 1.69861189 33.8296221 1 37 C-1.97 37 -4.94 37 -8 37 C-7.2365209 32.89443077 -6.46284743 28.79084301 -5.6875 24.6875 C-5.47416016 23.53958984 -5.26082031 22.39167969 -5.04101562 21.20898438 C-3.67901214 14.03305558 -2.04628153 7.01213814 0 0 Z " fill="#E8E8E7" transform="translate(530,189)"/>
<path d="M0 0 C3 1 3 1 4.00463867 2.83374023 C4.3060376 3.65044189 4.60743652 4.46714355 4.91796875 5.30859375 C5.27785889 6.26378906 5.63774902 7.21898437 6.00854492 8.203125 C6.3976001 9.27046875 6.78665527 10.3378125 7.1875 11.4375 C8.06176888 13.78022089 8.93682912 16.12264654 9.8125 18.46484375 C10.05199875 19.11041229 10.2914975 19.75598083 10.53825378 20.42111206 C12.72346556 26.30237666 14.98305994 32.15373735 17.25 38.00390625 C18.35995219 40.87824416 19.46904632 43.75291151 20.57778931 46.62771606 C21.31876892 48.54560679 22.06192042 50.4626598 22.80722046 52.37887573 C23.86181729 55.09359847 24.90659675 57.81190984 25.94921875 60.53125 C26.43436951 61.77020775 26.43436951 61.77020775 26.92932129 63.03419495 C27.67832835 65.00141058 28.34750119 66.99870187 29 69 C28.67 69.66 28.34 70.32 28 71 C24.06736863 63.70843878 21.34380672 56.03116178 18.5625 48.25 C15.26866489 39.06511401 11.85642433 29.9686237 8 21 C8.23009766 21.79575439 8.46019531 22.59150879 8.69726562 23.41137695 C10.04059748 28.05706627 11.21384759 32.12605704 11 37 C8.9779213 33.96688195 8.26632148 31.7942776 7.34375 28.30078125 C7.04339844 27.17349609 6.74304688 26.04621094 6.43359375 24.88476562 C6.12550781 23.70591797 5.81742188 22.52707031 5.5 21.3125 C5.19191406 20.15298828 4.88382813 18.99347656 4.56640625 17.79882812 C2.99762086 11.87716825 1.46676483 5.94773141 0 0 Z " fill="#BA8D61" transform="translate(129,53)"/>
<path d="M0 0 C0 3 0 3 -1.34936523 5.47119141 C-3.6196918 10.32480775 -4.43464475 15.21393796 -5.41015625 20.4609375 C-5.62312851 21.56547272 -5.83610077 22.67000793 -6.05552673 23.80801392 C-6.7328579 27.32880595 -7.39815583 30.85173655 -8.0625 34.375 C-8.7327087 37.89064347 -9.40542844 41.40578938 -10.08018494 44.92056274 C-10.49851275 47.10369643 -10.91383937 49.28740803 -11.32569885 51.47177124 C-12.38367398 57.03518637 -13.561961 62.52210706 -15 68 C-15.66 68 -16.32 68 -17 68 C-17.13947228 56.62526092 -16.73570866 45.35093354 -16 34 C-15.67 34 -15.34 34 -15 34 C-14.67 39.94 -14.34 45.88 -14 52 C-13.74307373 50.69853027 -13.48614746 49.39706055 -13.22143555 48.05615234 C-12.262875 43.21259215 -11.2929263 38.37137037 -10.31958008 33.53076172 C-9.90046867 31.43828045 -9.48441833 29.34518357 -9.0715332 27.25146484 C-8.47637246 24.23627022 -7.87011661 21.22348543 -7.26171875 18.2109375 C-7.08033859 17.27945892 -6.89895844 16.34798035 -6.71208191 15.38827515 C-5.52730108 9.59170371 -4.3168149 4.3168149 0 0 Z " fill="#BC8F62" transform="translate(195,33)"/>
<path d="M0 0 C0.99 0.33 1.98 0.66 3 1 C5.46378452 6.51887734 6.85494543 12.0838847 8 18 C8.1753125 18.90234375 8.350625 19.8046875 8.53125 20.734375 C9.54710707 26.14231997 10.38105659 31.53266651 11 37 C8.9779213 33.96688195 8.26632148 31.7942776 7.34375 28.30078125 C7.04339844 27.17349609 6.74304688 26.04621094 6.43359375 24.88476562 C6.12550781 23.70591797 5.81742188 22.52707031 5.5 21.3125 C5.19191406 20.15298828 4.88382813 18.99347656 4.56640625 17.79882812 C2.99762086 11.87716825 1.46676483 5.94773141 0 0 Z " fill="#799FC0" transform="translate(129,53)"/>
<path d="M0 0 C0.99 0.33 1.98 0.66 3 1 C1.38435744 4.15072554 -0.24405442 7.29467236 -1.875 10.4375 C-2.33519531 11.33533203 -2.79539063 12.23316406 -3.26953125 13.15820312 C-3.71425781 14.01220703 -4.15898437 14.86621094 -4.6171875 15.74609375 C-5.02565918 16.53685303 -5.43413086 17.3276123 -5.85498047 18.14233398 C-7 20 -7 20 -9 21 C-8.67 19.35 -8.34 17.7 -8 16 C-9.32 17.32 -10.64 18.64 -12 20 C-10.37885498 15.20178341 -7.70723241 11.3327141 -4.875 7.1875 C-4.40707031 6.49462891 -3.93914062 5.80175781 -3.45703125 5.08789062 C-2.30887563 3.38908895 -1.15500633 1.69415136 0 0 Z " fill="#8B8884" transform="translate(227,66)"/>
<path d="M0 0 C0.33 0 0.66 0 1 0 C1.16833857 4.03821705 1.32881721 8.07666417 1.48217773 12.11547852 C1.53538216 13.48795874 1.59069309 14.86035905 1.64819336 16.23266602 C1.73070839 18.2108742 1.80489585 20.18942414 1.87890625 22.16796875 C1.94960327 23.95110474 1.94960327 23.95110474 2.02172852 25.77026367 C2.00212782 28.68371968 1.69052984 31.17975522 1 34 C0.34 34 -0.32 34 -1 34 C-1.13947228 22.62526092 -0.73570866 11.35093354 0 0 Z " fill="#7A94AB" transform="translate(179,67)"/>
<path d="M0 0 C-0.33 0.66 -0.66 1.32 -1 2 C-2.99281757 2.25713775 -4.98829861 2.50836152 -6.9921875 2.65625 C-9.30982249 2.91308355 -9.30982249 2.91308355 -12 5 C-14.50357861 4.1654738 -16.66785852 3.20628008 -19 2 C-12.6221448 0.82706111 -6.49678438 -0.29530838 0 0 Z " fill="#928E8A" transform="translate(375,101)"/>
<path d="M0 0 C4.62 1.65 9.24 3.3 14 5 C13.01 6.485 13.01 6.485 12 8 C7.39571066 6.68448876 3.81679612 4.90803514 0 2 C0 1.34 0 0.68 0 0 Z " fill="#959796" transform="translate(424,45)"/>
<path d="M0 0 C2.06277107 0.14194764 4.12521031 0.28872216 6.1875 0.4375 C7.91033203 0.55931641 7.91033203 0.55931641 9.66796875 0.68359375 C12.51598171 0.95403812 15.21210482 1.37521747 18 2 C18 2.33 18 2.66 18 3 C11.04952816 4.21357445 6.49976102 3.71975816 0 1 C0 0.67 0 0.34 0 0 Z " fill="#8F8F8E" transform="translate(274,46)"/>
<path d="M0 0 C0.75 1.5625 0.75 1.5625 1 4 C-0.13084437 6.50286409 -1.52139516 8.67007722 -3 11 C-4 9 -4 9 -4 7 C-4.99 7.99 -5.98 8.98 -7 10 C-5.6062718 5.56541027 -3.39417765 3.12621626 0 0 Z " fill="#A4A5A1" transform="translate(222,76)"/>
<path d="M0 0 C2 1 2 1 3 3 C1.75823305 3.70226141 0.50614401 4.38629109 -0.75 5.0625 C-1.79414063 5.63677734 -1.79414063 5.63677734 -2.859375 6.22265625 C-5 7 -5 7 -9 6 C-6.03 4.02 -3.06 2.04 0 0 Z " fill="#919494" transform="translate(436,151)"/>
<path d="M0 0 C0.99 0.33 1.98 0.66 3 1 C3.94921875 3.28515625 3.94921875 3.28515625 4.6875 6.0625 C4.93886719 6.98160156 5.19023437 7.90070312 5.44921875 8.84765625 C5.63097656 9.55792969 5.81273437 10.26820312 6 11 C5.34 11 4.68 11 4 11 C1.38411497 7.44239635 0.50642192 4.35522853 0 0 Z " fill="#827E72" transform="translate(129,53)"/>
</svg>
